<svg aria-hidden="true" style="position: absolute; width: 0; height: 0; overflow: hidden;" version="1.1" xmlns="http://www.w3.org/2000/svg" xmlns:xlink="http://www.w3.org/1999/xlink">
<defs>
<symbol id="icon-locations-1" viewBox="0 0 23 32">
<path fill="#5e450b" style="fill: var(--color1, #5e450b)" d="M0.174 10.984c0-6.018 5.117-10.81 11.304-10.81s11.304 4.791 11.304 10.81c0 3.393-1.834 7.591-3.844 11.219-2.040 3.683-4.389 7.001-5.649 8.702-0.413 0.56-1.070 0.919-1.812 0.919s-1.399-0.359-1.807-0.913l-0.004-0.006c-1.259-1.702-3.609-5.021-5.649-8.705-2.009-3.629-3.844-7.826-3.844-11.217zM11.478 2.435c-5.046 0-9.043 3.883-9.043 8.549 0 2.756 1.557 6.502 3.561 10.122 1.969 3.555 4.249 6.781 5.482 8.447 1.233-1.666 3.514-4.89 5.482-8.445 2.004-3.618 3.561-7.365 3.561-10.123 0-4.666-3.997-8.549-9.043-8.549z"></path>
<path fill="#5e450b" style="fill: var(--color1, #5e450b)" d="M11.478 9.217c-1.249 0-2.261 1.012-2.261 2.261s1.012 2.261 2.261 2.261v0c1.249 0 2.261-1.012 2.261-2.261s-1.012-2.261-2.261-2.261v0zM6.957 11.478c0-2.497 2.024-4.522 4.522-4.522s4.522 2.024 4.522 4.522-2.024 4.522-4.522 4.522-4.522-2.024-4.522-4.522z"></path>
<path fill="none" stroke="#000" style="stroke: var(--color2, #000)" stroke-linejoin="round" stroke-linecap="round" stroke-miterlimit="4" stroke-width="0.3478" d="M0.174 10.984c0-6.018 5.117-10.81 11.304-10.81s11.304 4.791 11.304 10.81c0 3.393-1.834 7.591-3.844 11.219-2.040 3.683-4.389 7.001-5.649 8.702-0.413 0.56-1.070 0.919-1.812 0.919s-1.399-0.359-1.807-0.913l-0.004-0.006c-1.259-1.702-3.609-5.021-5.649-8.705-2.009-3.629-3.844-7.826-3.844-11.217zM11.478 2.435c-5.046 0-9.043 3.883-9.043 8.549 0 2.756 1.557 6.502 3.561 10.122 1.969 3.555 4.249 6.781 5.482 8.447 1.233-1.666 3.514-4.89 5.482-8.445 2.004-3.618 3.561-7.365 3.561-10.123 0-4.666-3.997-8.549-9.043-8.549z"></path>
<path fill="none" stroke="#000" style="stroke: var(--color2, #000)" stroke-linejoin="round" stroke-linecap="round" stroke-miterlimit="4" stroke-width="0.3478" d="M11.478 9.217c-1.249 0-2.261 1.012-2.261 2.261s1.012 2.261 2.261 2.261v0c1.249 0 2.261-1.012 2.261-2.261s-1.012-2.261-2.261-2.261v0zM6.957 11.478c0-2.497 2.024-4.522 4.522-4.522s4.522 2.024 4.522 4.522-2.024 4.522-4.522 4.522-4.522-2.024-4.522-4.522z"></path>
</symbol>
<symbol id="icon-white_inst-1" viewBox="0 0 32 32">
<path fill="#fbf9f7" style="fill: var(--color3, #fbf9f7)" d="M17.645 0c1.8 0.005 2.713 0.013 3.501 0.037l0.311 0.011c0.359 0.013 0.712 0.029 1.139 0.048 1.703 0.080 2.864 0.349 3.884 0.744 1.056 0.407 1.945 0.957 2.835 1.845 0.793 0.78 1.42 1.725 1.826 2.781l0.018 0.054c0.396 1.019 0.664 2.18 0.744 3.884 0.020 0.427 0.036 0.78 0.049 1.14l0.009 0.311c0.024 0.787 0.033 1.7 0.036 3.5l0.003 1.193v2.096c0 0.119 0.001 0.26 0.001 0.401 0 1.090-0.014 2.177-0.041 3.261l0.003-0.16-0.009 0.311c-0.013 0.36-0.029 0.713-0.048 1.139-0.080 1.704-0.352 2.864-0.747 3.884-0.424 1.11-1.051 2.056-1.843 2.835l-0.001 0.001c-0.78 0.793-1.725 1.42-2.781 1.826l-0.054 0.018c-1.020 0.396-2.181 0.664-3.884 0.744l-1.139 0.048-0.311 0.011c-0.788 0.021-1.701 0.033-3.501 0.036l-3.288 0.001c-0.14 0.001-0.305 0.001-0.47 0.001-1.066 0-2.13-0.013-3.189-0.040l0.157 0.003-0.311-0.009c-0.38-0.015-0.76-0.032-1.139-0.051-1.703-0.080-2.864-0.348-3.885-0.744-1.109-0.424-2.054-1.051-2.832-1.843l-0.001-0.001c-0.794-0.78-1.421-1.726-1.827-2.782l-0.018-0.054c-0.396-1.019-0.664-2.18-0.744-3.884l-0.048-1.139-0.008-0.311c-0.026-0.966-0.042-2.102-0.042-3.243 0-0.091 0-0.182 0-0.273l-0 0.014v-3.289c-0.001-0.148-0.001-0.323-0.001-0.498 0-1.056 0.013-2.108 0.039-3.157l-0.003 0.156 0.011-0.311c0.013-0.36 0.029-0.713 0.048-1.14 0.080-1.704 0.349-2.864 0.744-3.884 0.426-1.11 1.055-2.055 1.849-2.833l0.001-0.001c0.779-0.793 1.724-1.421 2.778-1.827l0.054-0.018c1.021-0.395 2.181-0.664 3.885-0.744 0.427-0.019 0.78-0.035 1.139-0.048l0.311-0.009c1.167-0.029 2.333-0.040 3.501-0.037l3.289-0.001zM16 8c-4.418 0-8 3.582-8 8s3.582 8 8 8v0c4.418 0 8-3.582 8-8s-3.582-8-8-8v0zM16 11.2c2.651 0 4.8 2.149 4.8 4.8s-2.149 4.8-4.8 4.8v0c-2.651 0-4.8-2.149-4.8-4.8s2.149-4.8 4.8-4.8v0zM24.4 5.6c-1.105 0-2 0.895-2 2s0.895 2 2 2v0c1.105 0 2-0.895 2-2s-0.895-2-2-2v0z"></path>
</symbol>
<symbol id="icon-white_fb-1" viewBox="0 0 32 32">
<path fill="#fbf9f7" style="fill: var(--color3, #fbf9f7)" d="M30.72 0h-29.44c-0 0-0.001 0-0.001 0-0.706 0-1.279 0.572-1.279 1.279 0 0 0 0.001 0 0.001v-0 29.44c0 0.708 0.572 1.28 1.28 1.28h29.44c0.708 0 1.28-0.572 1.28-1.28v-29.44c0-0 0-0.001 0-0.001 0-0.706-0.572-1.279-1.279-1.279-0 0-0.001 0-0.001 0h0zM27.024 9.34h-2.556c-2.004 0-2.392 0.952-2.392 2.352v3.084h4.784l-0.624 4.828h-4.16v12.396h-4.988v-12.392h-4.172v-4.832h4.172v-3.56c0-4.132 2.524-6.384 6.212-6.384 1.768 0 3.284 0.132 3.728 0.192v4.316h-0.004z"></path>
</symbol>
<symbol id="icon-white_wb-1" viewBox="0 0 35 32">
<path fill="#fbf9f7" style="fill: var(--color3, #fbf9f7)" d="M34.667 7.28c-0.022-0.75-0.084-1.464-0.185-2.164l0.012 0.1c-0.144-0.653-0.365-1.23-0.658-1.762l0.017 0.034c-0.329-0.62-0.74-1.148-1.227-1.596l-0.004-0.004c-0.497-0.449-1.069-0.83-1.691-1.119l-0.042-0.017c-0.54-0.251-1.168-0.45-1.824-0.569l-0.048-0.007c-0.651-0.095-1.419-0.159-2.198-0.176l-0.021-0h-18.911c-0.747 0.017-1.493 0.072-2.236 0.16-0.649 0.12-1.28 0.319-1.872 0.592-0.667 0.299-1.239 0.68-1.738 1.14l0.004-0.004c-0.921 0.868-1.579 2.006-1.847 3.287l-0.007 0.041c-0.111 0.679-0.173 1.363-0.191 2.048v17.456c0.020 0.691 0.077 1.379 0.173 2.064 0.129 0.6 0.345 1.181 0.641 1.728 0.309 0.593 0.725 1.133 1.231 1.6 0.509 0.46 1.093 0.844 1.733 1.136 0.593 0.268 1.223 0.461 1.872 0.576 0.735 0.101 1.476 0.16 2.219 0.176h18.911c0.747-0.019 1.493-0.071 2.236-0.16 0.649-0.12 1.28-0.319 1.872-0.592 0.667-0.299 1.239-0.68 1.738-1.14l-0.004 0.004c0.499-0.471 0.915-1.011 1.231-1.6 0.291-0.547 0.5-1.129 0.624-1.728 0.111-0.679 0.173-1.363 0.191-2.048v-17.456zM17.732 27.2c-2.171-0.006-4.217-0.538-6.018-1.475l0.073 0.035-6.587 1.6 1.733-5.952c-1.066-1.617-1.709-3.595-1.733-5.722l-0-0.006c0.016-2.397 0.804-4.606 2.129-6.395l-0.021 0.029c1.368-1.883 3.309-3.351 5.579-4.217s4.767-1.095 7.176-0.653c2.409 0.44 4.624 1.528 6.364 3.128 1.741 1.6 2.929 3.64 3.417 5.861 0.157 0.685 0.246 1.471 0.246 2.279 0 1.575-0.341 3.069-0.953 4.415l0.027-0.067c-0.929 2.099-2.511 3.897-4.545 5.168-1.957 1.229-4.335 1.962-6.883 1.972h-0.003zM17.732 6.192c-1.915 0.017-3.709 0.518-5.271 1.386l0.056-0.029c-1.565 0.864-2.838 2.083-3.742 3.554l-0.025 0.043c-0.816 1.33-1.299 2.94-1.299 4.663 0 0.067 0.001 0.134 0.002 0.2l-0-0.010c0.049 1.795 0.611 3.449 1.546 4.832l-0.020-0.032 0.243 0.368-1.040 3.504 3.952-0.992 0.381 0.208c1.503 0.827 3.293 1.318 5.197 1.328h0.003c2.759 0 5.404-1.012 7.353-2.812 1.951-1.8 3.047-4.241 3.047-6.788s-1.096-4.987-3.047-6.788c-1.949-1.8-4.595-2.812-7.353-2.812l0.017 0.176zM23.799 19.824c-0.227 0.349-0.531 0.651-0.893 0.885-0.344 0.225-0.749 0.391-1.184 0.472l-0.020 0.003c-0.218 0.039-0.469 0.061-0.726 0.061-0.433 0-0.852-0.063-1.246-0.181l0.031 0.008c-0.705-0.204-1.28-0.411-1.84-0.648l0.106 0.040c-2.143-0.992-3.971-2.48-5.304-4.32-0.691-0.8-1.151-1.818-1.264-2.938l-0.002-0.022c-0-0.020-0.001-0.043-0.001-0.066 0-0.45 0.1-0.877 0.278-1.259l-0.008 0.018c0.188-0.413 0.468-0.787 0.823-1.093 0.104-0.108 0.229-0.195 0.369-0.255l0.007-0.003c0.134-0.058 0.291-0.093 0.455-0.095h0.486c0.191 0 0.451 0 0.693 0.496s0.884 1.984 0.971 2.128c0.040 0.071 0.064 0.157 0.064 0.248s-0.024 0.177-0.066 0.251l0.001-0.003c-0.076 0.173-0.181 0.336-0.312 0.48-0.156 0.176-0.329 0.384-0.468 0.512s-0.312 0.288-0.139 0.576c0.494 0.76 1.067 1.413 1.721 1.974l0.012 0.010c0.713 0.583 1.539 1.064 2.435 1.404l0.061 0.020c0.312 0.144 0.503 0.128 0.676 0s0.78-0.832 0.988-1.12c0.208-0.288 0.416-0.24 0.693-0.144s1.82 0.784 2.132 0.928c0.312 0.144 0.503 0.208 0.589 0.336 0.075 0.419 0.033 0.848-0.121 1.248v0.048z"></path>
</symbol>

<symbol id="icon-logo_small" viewBox="0 0 27 32">
<path fill="#efefef" style="fill: var(--color4, #efefef)" d="M15.753 6.597h-4.042v-5.684h-3.629l-0.863 3.544-0.277 0.631c-0.119 0.191-0.327 0.317-0.565 0.317-0.008 0-0.015-0-0.023-0l0.001 0c-0.898-1.24-2.039-2.339-3.419-3.298-0.966-0.679-1.45-1.229-1.45-1.649 0-0.304 0.091-0.456 0.276-0.456h24.009c0.161 0 0.241 0.176 0.241 0.527 0 0.070-0.76 0.725-2.28 1.965-0.944 0.772-1.762 1.743-2.452 2.912-0.006 0-0.013 0-0.021 0-0.241 0-0.456-0.109-0.6-0.28l-0.001-0.001c-0.046-0.070-0.174-0.293-0.38-0.667l-1.071-3.542h-3.455v5.684zM14.162 26.211c0.091 0.865 0.518 1.555 1.278 2.070s1.624 0.772 2.591 0.772c2.003 0 3.443-1.333 4.318-4 0.599-1.824 0.898-4.047 0.898-6.666 0-2.574-0.426-4.773-1.278-6.597-0.852-1.848-1.888-2.772-3.109-2.772-0.806 0-1.486 0.257-2.039 0.772s-0.828 1.135-0.828 1.86c0 0.678 0.288 1.018 0.863 1.018-0.151-0.236-0.241-0.524-0.241-0.832 0-0.003 0-0.006 0-0.009v0c0-0.399 0.149-0.714 0.449-0.948s0.667-0.351 1.106-0.351c0.528 0 0.966 0.21 1.312 0.631 0.368 0.399 0.552 0.89 0.552 1.475 0 0.631-0.253 1.181-0.759 1.648-0.44 0.414-1.034 0.668-1.687 0.668-0.014 0-0.029-0-0.043-0l0.002 0c-0.667 0-1.243-0.339-1.728-1.018-0.483-0.678-0.725-1.52-0.725-2.526 0-0.912 0.38-1.685 1.14-2.316 0.784-0.656 1.716-0.983 2.798-0.983 2.58 0 4.653 1.1 6.219 3.299 1.451 2.034 2.176 4.538 2.176 7.508 0 3.65-0.679 6.691-2.039 9.123-1.471 2.643-3.475 3.965-6.008 3.965-1.313 0-2.545-0.549-3.696-1.649-0.991-0.959-1.647-2-1.969-3.122-0.391 1.146-1.082 2.187-2.073 3.122-1.153 1.101-2.327 1.649-3.525 1.649-2.533 0-4.526-1.24-5.976-3.719-1.429-2.48-2.142-5.602-2.142-9.369 0-2.83 0.749-5.298 2.245-7.403 1.612-2.269 3.661-3.404 6.148-3.404 1.106 0 2.039 0.316 2.798 0.947 0.761 0.632 1.141 1.415 1.141 2.352 0 0.959-0.242 1.789-0.726 2.491s-1.060 1.053-1.727 1.053c-0.691 0-1.278-0.222-1.762-0.667-0.446-0.396-0.725-0.97-0.725-1.61 0-0.013 0-0.027 0-0.040l-0 0.002c0-0.585 0.173-1.076 0.518-1.474 0.368-0.421 0.818-0.631 1.348-0.631 0.438 0 0.806 0.116 1.105 0.35s0.449 0.55 0.449 0.947c0 0.304-0.080 0.585-0.241 0.842 0.003 0 0.007 0 0.011 0 0.251 0 0.474-0.124 0.61-0.313l0.002-0.002c0.161-0.21 0.241-0.444 0.241-0.702 0-0.725-0.276-1.344-0.828-1.86s-1.232-0.772-2.039-0.772c-1.796 0-3.040 1.146-3.73 3.438-0.438 1.451-0.656 3.429-0.656 5.931 0 2.549 0.299 4.748 0.898 6.597 0.875 2.713 2.257 4.069 4.145 4.069 0.99 0 1.877-0.245 2.661-0.737s1.243-1.192 1.381-2.105c-0.46 0-0.863-0.199-1.209-0.597-0.321-0.363-0.518-0.844-0.518-1.37 0-0.012 0-0.023 0-0.035l-0 0.002c0-0.538 0.137-0.994 0.414-1.368s0.634-0.562 1.071-0.562c0-0.467-0.091-0.901-0.276-1.298-0.161-0.421-0.507-0.901-1.036-1.438l-1.072-0.421c-0.079-0.038-0.147-0.085-0.207-0.141l0 0c-0.046-0.070-0.092-0.152-0.139-0.246 0-0.233 0.104-0.35 0.311-0.35h6.288c0.23 0 0.346 0.128 0.346 0.386-0.014 0.054-0.038 0.1-0.070 0.141l0.001-0.001c-0.091 0.117-0.173 0.187-0.241 0.21l-1.175 0.421c-0.552 0.538-0.921 1.006-1.105 1.403-0.161 0.375-0.241 0.819-0.241 1.333 0.414 0 0.771 0.187 1.071 0.562s0.449 0.83 0.449 1.368c0 0.538-0.173 1.006-0.518 1.403s-0.759 0.597-1.243 0.597z"></path>
</symbol>
<symbol id="icon-first_quotes" viewBox="0 0 47 32">
<path fill="#5e450b" style="fill: var(--color1, #5e450b)" d="M46.333 22.146c0 2.777-0.971 5.113-2.914 7.009-2.012 1.897-4.406 2.845-7.181 2.845-3.33 0-6.036-1.050-8.117-3.149-2.151-2.031-3.227-4.876-3.227-8.533 0-1.896 0.139-3.86 0.417-5.892s0.937-3.996 1.977-5.892c0.902-1.761 2.255-3.454 4.059-5.080 1.804-1.557 3.92-2.607 6.349-3.149 0.069 0 0.208 0.033 0.416 0.102 0.209 0.067 0.313 0.237 0.313 0.507s-0.173 0.475-0.52 0.61c-2.221 0.473-4.129 1.422-5.725 2.844-1.665 1.49-2.949 3.082-3.851 4.775-0.971 1.761-1.561 3.589-1.769 5.486-0.264 1.709-0.416 3.681-0.416 5.688v0.001c0 3.387 0.937 5.96 2.81 7.721 1.804 1.829 4.232 2.743 7.285 2.743 2.567 0 4.683-0.813 6.348-2.438s2.498-3.691 2.498-6.197c0-2.506-0.798-4.537-2.393-6.095-1.666-1.49-3.782-2.235-6.349-2.235-0.417 0-0.625-0.203-0.625-0.61s0.208-0.609 0.625-0.609c2.775 0 5.133 0.915 7.077 2.743s2.914 4.098 2.914 6.807zM13.134 0c0.069 0 0.209 0.033 0.417 0.101s0.312 0.237 0.312 0.508c0 0.271-0.173 0.474-0.52 0.61-2.22 0.473-4.129 1.422-5.724 2.844-1.665 1.49-2.949 3.081-3.851 4.775-0.971 1.761-1.561 3.589-1.769 5.486-0.264 1.709-0.416 3.681-0.417 5.688v0.001c0 3.387 0.937 5.96 2.81 7.721 1.804 1.829 4.233 2.743 7.285 2.743 2.567 0 4.683-0.813 6.349-2.438s2.497-3.691 2.497-6.197-0.798-4.537-2.393-6.095c-1.665-1.49-3.781-2.235-6.349-2.235-0.417 0-0.625-0.203-0.625-0.61s0.209-0.609 0.625-0.609c2.775 0 5.134 0.915 7.077 2.743s2.914 4.097 2.914 6.807c0 2.777-0.971 5.113-2.913 7.009-2.013 1.897-4.407 2.845-7.181 2.845-3.331 0-6.036-1.050-8.118-3.149-2.151-2.032-3.226-4.876-3.226-8.533 0-1.896 0.139-3.86 0.416-5.892s0.937-3.996 1.977-5.892c0.902-1.761 2.255-3.454 4.059-5.080 1.804-1.557 3.92-2.607 6.347-3.149z"></path>
</symbol>
<symbol id="icon-second_quotes" viewBox="0 0 47 32">
<path fill="#5e450b" style="fill: var(--color1, #5e450b)" d="M0.333 9.854c0-2.777 0.985-5.113 2.956-7.009 2.041-1.897 4.471-2.845 7.285-2.845 3.379 0 6.123 1.050 8.235 3.149 2.182 2.031 3.273 4.876 3.273 8.533 0 1.896-0.141 3.86-0.423 5.892s-0.95 3.996-2.007 5.892c-0.915 1.761-2.287 3.454-4.117 5.079-1.83 1.558-3.977 2.607-6.44 3.149-0.071 0-0.211-0.033-0.423-0.101s-0.317-0.237-0.317-0.508c0-0.271 0.176-0.475 0.528-0.61 2.253-0.473 4.188-1.422 5.807-2.844 1.689-1.49 2.992-3.082 3.907-4.775 0.985-1.761 1.584-3.589 1.795-5.486 0.268-1.709 0.422-3.681 0.423-5.688v-0.001c0-3.387-0.95-5.96-2.851-7.721-1.83-1.829-4.293-2.743-7.391-2.743-2.604 0-4.751 0.813-6.44 2.438-1.691 1.625-2.535 3.691-2.535 6.196s0.81 4.537 2.429 6.095c1.689 1.49 3.836 2.235 6.44 2.235 0.423 0 0.633 0.203 0.633 0.61s-0.211 0.609-0.633 0.609c-2.815 0-5.208-0.915-7.179-2.743s-2.956-4.098-2.956-6.807zM34.013 32c-0.070 0-0.211-0.033-0.422-0.101s-0.317-0.237-0.317-0.508c0-0.271 0.176-0.474 0.528-0.61 2.252-0.473 4.188-1.422 5.807-2.844 1.689-1.49 2.991-3.082 3.907-4.775 0.985-1.761 1.583-3.589 1.795-5.486 0.281-1.896 0.423-3.793 0.423-5.689 0-3.387-0.951-5.96-2.851-7.721-1.831-1.829-4.293-2.743-7.391-2.743-2.604 0-4.751 0.813-6.44 2.438s-2.534 3.691-2.534 6.197c0 2.506 0.809 4.537 2.428 6.095 1.69 1.49 3.837 2.235 6.441 2.235 0.423 0 0.633 0.203 0.633 0.61s-0.211 0.609-0.633 0.609c-2.815 0-5.209-0.915-7.18-2.743-1.97-1.829-2.955-4.097-2.955-6.807 0-2.777 0.985-5.113 2.956-7.009 2.041-1.897 4.469-2.845 7.285-2.845 3.379 0 6.124 1.050 8.236 3.149 2.182 2.032 3.273 4.876 3.273 8.533 0 1.896-0.141 3.86-0.422 5.892s-0.951 3.996-2.007 5.892c-0.915 1.761-2.287 3.454-4.117 5.080-1.83 1.557-3.977 2.607-6.44 3.149z"></path>
</symbol>
<symbol id="icon-instagram" viewBox="0 0 32 32">
<path fill="#5e450b" style="fill: var(--color1, #5e450b)" d="M17.645 0c1.8 0.005 2.713 0.013 3.501 0.037l0.311 0.011c0.359 0.013 0.712 0.029 1.139 0.048 1.703 0.080 2.864 0.349 3.884 0.744 1.056 0.407 1.945 0.957 2.835 1.845 0.793 0.78 1.42 1.725 1.826 2.781l0.018 0.054c0.396 1.019 0.664 2.18 0.744 3.884 0.020 0.427 0.036 0.78 0.049 1.14l0.009 0.311c0.024 0.787 0.033 1.7 0.036 3.5l0.003 1.193v2.096c0 0.119 0.001 0.26 0.001 0.401 0 1.090-0.014 2.177-0.041 3.261l0.003-0.16-0.009 0.311c-0.013 0.36-0.029 0.713-0.048 1.139-0.080 1.704-0.352 2.864-0.747 3.884-0.424 1.11-1.051 2.056-1.843 2.835l-0.001 0.001c-0.78 0.793-1.725 1.42-2.781 1.826l-0.054 0.018c-1.020 0.396-2.181 0.664-3.884 0.744l-1.139 0.048-0.311 0.011c-0.788 0.021-1.701 0.033-3.501 0.036l-3.288 0.001c-0.14 0.001-0.305 0.001-0.47 0.001-1.066 0-2.13-0.013-3.189-0.040l0.157 0.003-0.311-0.009c-0.38-0.015-0.76-0.032-1.139-0.051-1.703-0.080-2.864-0.348-3.885-0.744-1.109-0.424-2.054-1.051-2.832-1.843l-0.001-0.001c-0.794-0.78-1.421-1.726-1.827-2.782l-0.018-0.054c-0.396-1.019-0.664-2.18-0.744-3.884l-0.048-1.139-0.008-0.311c-0.026-0.966-0.042-2.102-0.042-3.243 0-0.091 0-0.182 0-0.273l-0 0.014v-3.289c-0.001-0.148-0.001-0.323-0.001-0.498 0-1.056 0.013-2.108 0.039-3.157l-0.003 0.156 0.011-0.311c0.013-0.36 0.029-0.713 0.048-1.14 0.080-1.704 0.349-2.864 0.744-3.884 0.426-1.11 1.055-2.055 1.849-2.833l0.001-0.001c0.779-0.793 1.724-1.421 2.778-1.827l0.054-0.018c1.021-0.395 2.181-0.664 3.885-0.744 0.427-0.019 0.78-0.035 1.139-0.048l0.311-0.009c1.167-0.029 2.333-0.040 3.501-0.037l3.289-0.001zM16 8c-4.418 0-8 3.582-8 8s3.582 8 8 8v0c4.418 0 8-3.582 8-8s-3.582-8-8-8v0zM16 11.2c2.651 0 4.8 2.149 4.8 4.8s-2.149 4.8-4.8 4.8v0c-2.651 0-4.8-2.149-4.8-4.8s2.149-4.8 4.8-4.8v0zM24.4 5.6c-1.105 0-2 0.895-2 2s0.895 2 2 2v0c1.105 0 2-0.895 2-2s-0.895-2-2-2v0z"></path>
</symbol>
<symbol id="icon-facebook" viewBox="0 0 32 32">
<path fill="#5e450b" style="fill: var(--color1, #5e450b)" d="M30.72 0h-29.44c-0 0-0.001 0-0.001 0-0.706 0-1.279 0.572-1.279 1.279 0 0 0 0.001 0 0.001v-0 29.44c0 0.708 0.572 1.28 1.28 1.28h29.44c0.708 0 1.28-0.572 1.28-1.28v-29.44c0-0 0-0.001 0-0.001 0-0.706-0.572-1.279-1.279-1.279-0 0-0.001 0-0.001 0h0zM27.024 9.34h-2.556c-2.004 0-2.392 0.952-2.392 2.352v3.084h4.784l-0.624 4.828h-4.16v12.396h-4.988v-12.392h-4.172v-4.832h4.172v-3.56c0-4.132 2.524-6.384 6.212-6.384 1.768 0 3.284 0.132 3.728 0.192v4.316h-0.004z"></path>
</symbol>
<symbol id="icon-viber" viewBox="0 0 35 32">
<path fill="#5e450b" style="fill: var(--color1, #5e450b)" d="M34.667 7.28c-0.022-0.75-0.084-1.464-0.185-2.164l0.012 0.1c-0.144-0.653-0.365-1.23-0.658-1.762l0.017 0.034c-0.329-0.62-0.74-1.148-1.227-1.596l-0.004-0.004c-0.497-0.449-1.069-0.83-1.691-1.119l-0.042-0.017c-0.54-0.251-1.168-0.45-1.824-0.569l-0.048-0.007c-0.651-0.095-1.419-0.159-2.198-0.176l-0.021-0h-18.911c-0.747 0.017-1.493 0.072-2.236 0.16-0.649 0.12-1.28 0.319-1.872 0.592-0.667 0.299-1.239 0.68-1.738 1.14l0.004-0.004c-0.921 0.868-1.579 2.006-1.847 3.287l-0.007 0.041c-0.111 0.679-0.173 1.363-0.191 2.048v17.456c0.020 0.691 0.077 1.379 0.173 2.064 0.129 0.6 0.345 1.181 0.641 1.728 0.309 0.593 0.725 1.133 1.231 1.6 0.509 0.46 1.093 0.844 1.733 1.136 0.593 0.268 1.223 0.461 1.872 0.576 0.735 0.101 1.476 0.16 2.219 0.176h18.911c0.747-0.019 1.493-0.071 2.236-0.16 0.649-0.12 1.28-0.319 1.872-0.592 0.667-0.299 1.239-0.68 1.738-1.14l-0.004 0.004c0.499-0.471 0.915-1.011 1.231-1.6 0.291-0.547 0.5-1.129 0.624-1.728 0.111-0.679 0.173-1.363 0.191-2.048v-17.456zM17.732 27.2c-2.171-0.006-4.217-0.538-6.018-1.475l0.073 0.035-6.587 1.6 1.733-5.952c-1.066-1.617-1.709-3.595-1.733-5.722l-0-0.006c0.016-2.397 0.804-4.606 2.129-6.395l-0.021 0.029c1.368-1.883 3.309-3.351 5.579-4.217s4.767-1.095 7.176-0.653c2.409 0.44 4.624 1.528 6.364 3.128 1.741 1.6 2.929 3.64 3.417 5.861 0.157 0.685 0.246 1.471 0.246 2.279 0 1.575-0.341 3.069-0.953 4.415l0.027-0.067c-0.929 2.099-2.511 3.897-4.545 5.168-1.957 1.229-4.335 1.962-6.883 1.972h-0.003zM17.732 6.192c-1.915 0.017-3.709 0.518-5.271 1.386l0.056-0.029c-1.565 0.864-2.838 2.083-3.742 3.554l-0.025 0.043c-0.816 1.33-1.299 2.94-1.299 4.663 0 0.067 0.001 0.134 0.002 0.2l-0-0.010c0.049 1.795 0.611 3.449 1.546 4.832l-0.020-0.032 0.243 0.368-1.040 3.504 3.952-0.992 0.381 0.208c1.503 0.827 3.293 1.318 5.197 1.328h0.003c2.759 0 5.404-1.012 7.353-2.812 1.951-1.8 3.047-4.241 3.047-6.788s-1.096-4.987-3.047-6.788c-1.949-1.8-4.595-2.812-7.353-2.812l0.017 0.176zM23.799 19.824c-0.227 0.349-0.531 0.651-0.893 0.885-0.344 0.225-0.749 0.391-1.184 0.472l-0.020 0.003c-0.218 0.039-0.469 0.061-0.726 0.061-0.433 0-0.852-0.063-1.246-0.181l0.031 0.008c-0.705-0.204-1.28-0.411-1.84-0.648l0.106 0.040c-2.143-0.992-3.971-2.48-5.304-4.32-0.691-0.8-1.151-1.818-1.264-2.938l-0.002-0.022c-0-0.020-0.001-0.043-0.001-0.066 0-0.45 0.1-0.877 0.278-1.259l-0.008 0.018c0.188-0.413 0.468-0.787 0.823-1.093 0.104-0.108 0.229-0.195 0.369-0.255l0.007-0.003c0.134-0.058 0.291-0.093 0.455-0.095h0.486c0.191 0 0.451 0 0.693 0.496s0.884 1.984 0.971 2.128c0.040 0.071 0.064 0.157 0.064 0.248s-0.024 0.177-0.066 0.251l0.001-0.003c-0.076 0.173-0.181 0.336-0.312 0.48-0.156 0.176-0.329 0.384-0.468 0.512s-0.312 0.288-0.139 0.576c0.494 0.76 1.067 1.413 1.721 1.974l0.012 0.010c0.713 0.583 1.539 1.064 2.435 1.404l0.061 0.020c0.312 0.144 0.503 0.128 0.676 0s0.78-0.832 0.988-1.12c0.208-0.288 0.416-0.24 0.693-0.144s1.82 0.784 2.132 0.928c0.312 0.144 0.503 0.208 0.589 0.336 0.075 0.419 0.033 0.848-0.121 1.248v0.048z"></path>
</symbol>

</defs>
</svg>
